<svg height="24" viewBox="0 0 24 24" width="24" xmlns="http://www.w3.org/2000/svg"><path d="m12.043 6.925c-2.746 0-4.979 2.233-4.98 4.979-.001.94.263 1.856.761 2.649l.118.188-.503 1.837 1.885-.494.181.108c.766.454 1.641.693 2.535.693h.001c2.744 0 4.977-2.233 4.979-4.978.001-1.331-.517-2.582-1.456-3.522-.942-.942-2.192-1.46-3.521-1.46zm2.928 7.118c-.125.35-.723.668-1.01.711-.258.039-.585.055-.943-.059-.217-.068-.495-.161-.853-.315-1.502-.648-2.482-2.159-2.558-2.26-.074-.1-.61-.812-.61-1.548 0-.737.386-1.099.523-1.249.138-.149.299-.186.4-.186.1 0 .199.001.287.005.092.004.215-.035.336.257.125.3.425 1.036.462 1.111.037.074.062.162.013.262-.05.101-.074.162-.15.25-.074.088-.157.195-.224.263-.075.074-.153.155-.066.305.088.149.388.64.832 1.037.572.51 1.055.667 1.204.743.15.074.237.063.325-.038.087-.101.374-.437.474-.586.1-.15.199-.125.337-.076.137.051.873.412 1.022.487.148.074.249.112.287.175.036.062.036.361-.088.711z"/><path d="m20 3h-16c-.553 0-1 .447-1 1v16c0 .553.447 1 1 1h16c.553 0 1-.447 1-1v-16c0-.553-.447-1-1-1zm-7.96 14.896h-.002c-1.003 0-1.987-.252-2.862-.729l-3.176.833.85-3.104c-.523-.908-.799-1.938-.799-2.994.002-3.302 2.688-5.989 5.989-5.989 1.604.001 3.106.624 4.238 1.757 1.13 1.132 1.753 2.637 1.751 4.237-.001 3.302-2.688 5.989-5.989 5.989z"/></svg>
