<?xml version="1.0" encoding="utf-8"?>
<!-- Generator: Adobe Illustrator 26.0.2, SVG Export Plug-In . SVG Version: 6.00 Build 0)  -->
<svg version="1.1" xmlns="http://www.w3.org/2000/svg" xmlns:xlink="http://www.w3.org/1999/xlink" x="0px" y="0px"
	 viewBox="0 0 514.5 140.5" style="enable-background:new 0 0 514.5 140.5;" xml:space="preserve">
<style type="text/css">
	.st0{display:none;}
	.st1{display:inline;opacity:0.31;fill:none;stroke:#595959;stroke-miterlimit:10;}
	.st2{display:inline;}
	.st3{fill:none;stroke:#595959;stroke-miterlimit:10;}
	.st4{fill:#595959;}
	.st5{fill:#020202;}
	.st6{fill:#606060;}
	.st7{fill:#FFFFFF;}
	.st8{fill:#F08B1D;}
	.st9{fill:#92C82D;}
	.st10{fill:#33BFC1;}
</style>
<g id="Guides" class="st0">
</g>
<g id="Backgrounds">
</g>
<g id="Logos">
	<g>
		<g>
			<polygon class="st8" points="50.9,10 50.9,58.5 9.9,32.4 			"/>
			<polygon class="st9" points="50.9,10 91.9,32.4 91.9,84.6 50.9,58.5 			"/>
			<polygon class="st10" points="9.9,32.4 91.9,84.6 50.9,106.7 9.9,84.6 			"/>
			<path class="st7" d="M93.7,29.2l-41-22.5c-1.1-0.6-2.5-0.6-3.6,0l-41,22.5c-1.2,0.7-1.9,1.9-1.9,3.3v52.2c0,1.4,0.7,2.6,2,3.3
				l41,22.1c0.6,0.3,1.2,0.4,1.8,0.4s1.2-0.2,1.8-0.4l41-22.1c1.2-0.6,2-1.9,2-3.3V32.4C95.6,31.1,94.9,29.8,93.7,29.2z M88.2,77.8
				L54.6,56.4c0-0.1,0-0.2,0-0.3V16.3l33.5,18.4V77.8z M47.2,51.7L17.3,32.7l29.9-16.4V51.7z M50.9,102.5L13.7,82.4V39.2l70.9,45.1
				L50.9,102.5z"/>
			<g>
				<path class="st4" d="M99.8,25.8L52.7,0.4c-1.1-0.6-2.4-0.6-3.5,0L2,25.8c-1.2,0.6-2,1.9-2,3.3V88c0,1.4,0.8,2.6,2,3.3l47.2,25
					c0.5,0.3,1.1,0.4,1.7,0.4c0.6,0,1.2-0.1,1.7-0.4l47.2-25c1.2-0.6,2-1.9,2-3.3V29.1C101.8,27.7,101.1,26.4,99.8,25.8z M95.6,84.6
					c0,1.4-0.7,2.6-2,3.3l-41,22.1c-0.6,0.3-1.2,0.4-1.8,0.4c-0.6,0-1.2-0.2-1.8-0.4l-41-22.1c-1.2-0.6-2-1.9-2-3.3V32.4
					c0-1.4,0.7-2.6,1.9-3.3l41-22.5c1.1-0.6,2.5-0.6,3.6,0l41,22.5c1.2,0.7,1.9,1.9,1.9,3.3V84.6z"/>
			</g>
		</g>
		<g>
			<g>
				<path class="st4" d="M128.9,72.3V6.5h13.6V50c5.2-9.2,14.9-14.3,26.4-14.3c18.5,0,36,13.3,36,36.9c0,22.2-15.8,37.7-38.3,37.7
					C144.7,110.2,128.9,95.4,128.9,72.3z M191.1,72.9c0-14.3-9.8-24.7-24.4-24.7c-14.5,0-24.2,10.3-24.2,24.7
					c0,14.3,9.8,24.7,24.2,24.7C181.4,97.6,191.1,87.3,191.1,72.9z"/>
				<path class="st4" d="M218.7,37.5h13.6v70.9h-13.6V37.5z"/>
				<path class="st4" d="M247.1,97.1l45.6-47.5h-43.5V37.5h61.7v11.2l-45.6,47.5h47.1v12.2h-65.3V97.1z"/>
				<path class="st4" d="M321,73.5c0-22.2,15.8-37.9,38.3-37.9c22.2,0,37.7,15.2,37.7,37.9v34.9h-12.5V92.8
					c-4.7,11.5-15.2,17.4-27.5,17.4C338.5,110.2,321,96.9,321,73.5z M383.5,72.9c0-14.3-9.8-24.7-24.4-24.7s-24.4,10.3-24.4,24.7
					c0,14.3,9.8,24.7,24.4,24.7S383.5,87.3,383.5,72.9z"/>
				<path class="st4" d="M410.8,116.8h13.9c3.3,8.2,11.6,11.8,21.9,11.8c14.5,0,24.1-6.9,24.1-25.4V95c-4.9,9.2-14.8,14.6-26.7,14.6
					c-18.4,0-35.9-12.6-35.9-36.7c0-21.5,15.8-37.3,38.2-37.3c22.4,0,37.9,15.1,37.9,37.9v29.1c0,27.3-16.6,37.9-37.6,37.9
					C429.3,140.5,415.7,133.2,410.8,116.8z M470.8,72.9c0-14.3-9.8-24.7-24.4-24.7S422,58.6,422,72.9c0,14.3,9.8,24,24.4,24
					S470.8,87.3,470.8,72.9z"/>
				<path class="st4" d="M500.9,37.5h13.6v70.9h-13.6V37.5z"/>
			</g>
		</g>
	</g>
</g>
</svg>
