<?xml version="1.0" standalone="no"?>
<!DOCTYPE svg PUBLIC "-//W3C//DTD SVG 20010904//EN"
 "http://www.w3.org/TR/2001/REC-SVG-20010904/DTD/svg10.dtd">
<svg version="1.0" xmlns="http://www.w3.org/2000/svg"
 width="310.000000pt" height="320.000000pt" viewBox="0 0 310.000000 320.000000"
 preserveAspectRatio="xMidYMid meet">

<g transform="translate(0.000000,320.000000) scale(0.100000,-0.100000)"
fill="#000000" stroke="none">
<path d="M1451 2799 c-435 -54 -746 -358 -838 -818 -21 -104 -23 -357 -4 -476
27 -169 82 -348 147 -477 86 -171 261 -375 413 -482 141 -100 313 -176 397
-176 l34 0 0 234 c0 129 3 241 6 250 10 26 32 19 95 -33 79 -63 191 -127 281
-158 251 -89 549 17 701 249 20 31 37 61 37 66 0 6 -93 40 -207 77 -511 163
-508 162 -411 211 118 60 227 172 288 299 66 136 75 180 74 350 -1 132 -4 161
-28 240 -47 157 -109 270 -211 382 -56 63 -182 154 -262 189 -141 63 -353 93
-512 73z m275 -534 c115 -51 187 -132 224 -254 64 -205 -49 -417 -258 -486
-82 -27 -210 -18 -286 19 -104 51 -173 131 -211 245 -25 77 -18 197 17 273 48
105 150 190 267 224 67 20 177 10 247 -21z"/>
</g>
</svg>
